<svg width="20" height="20" viewBox="0 0 20 20" fill="none" xmlns="http://www.w3.org/2000/svg">
    <path d="M9.93342 9.61454C10.0358 9.71717 10.0933 9.8562 10.0933 10.0012C10.0933 10.1461 10.0358 10.2851 9.93342 10.3878L6 14.3212V17.4564C6.00077 17.5642 6.03337 17.6694 6.0937 17.7588C6.15403 17.8482 6.23942 17.9178 6.33914 17.9588C6.43886 17.9998 6.54847 18.0105 6.65424 17.9895C6.76 17.9685 6.8572 17.9167 6.93365 17.8406L14.3875 10.3916C14.4898 10.289 14.5473 10.1499 14.5473 10.005C14.5473 9.86005 14.4898 9.72101 14.3875 9.61838L6.93269 2.15976C6.85637 2.08357 6.75922 2.03166 6.65346 2.01056C6.54771 1.98946 6.43808 2.00012 6.33837 2.0412C6.23866 2.08227 6.15332 2.15193 6.09311 2.24139C6.0329 2.33086 6.00051 2.43614 6 2.54397V5.68495L9.93342 9.61454Z" fill="#FFFFFF" />
</svg>
